# This file uses centimeters as units for non-parametric coordinates.

mtllib Case.mtl
g default
v 18.691084 10.824465 14.133402
v 18.062813 3.528472 14.133402
v 19.252068 10.153820 13.465178
v 19.252068 10.153820 10.785851
v 18.062813 3.528472 10.117627
v 17.101006 3.528472 14.133402
v 17.101006 3.528472 10.117627
v 17.101006 10.824465 10.117627
v 17.101006 10.824465 14.133402
v 18.691084 10.824465 10.117627
v 16.636246 6.740938 -7.950460
v 17.718929 6.740938 -7.737874
v 17.718929 5.384576 -7.737874
v 16.636246 5.384576 -7.950460
v 18.858900 6.740938 -4.280137
v 18.858900 5.384576 -4.280137
v 18.858900 5.384576 4.280136
v 18.858900 6.740938 4.280136
v 20.215347 6.740938 -4.479584
v 20.215347 6.740938 4.479583
v 19.691460 6.740938 -5.481567
v 18.635468 6.740938 -4.871029
v 20.215347 5.384576 -4.479584
v 19.691460 5.384576 -5.481567
v 18.635468 5.384576 -4.871029
v 17.927326 6.740938 -6.284514
v 16.636246 6.740938 -5.496604
v 17.927326 5.384576 -6.284514
v 16.636246 5.384576 -5.496604
v 16.636246 6.740938 7.950459
v 16.636246 5.384576 7.950459
v 17.718929 5.384576 7.737873
v 17.718929 6.740938 7.737873
v 20.215347 5.384576 4.479583
v 18.635468 6.740938 4.871029
v 19.691460 6.740938 5.481567
v 19.691460 5.384576 5.481567
v 18.635468 5.384576 4.871029
v 16.636246 6.740938 5.496604
v 17.927326 6.740938 6.284513
v 17.927326 5.384576 6.284513
v 16.636246 5.384576 5.496604
v 18.691084 10.824465 -10.117627
v 18.062813 3.528472 -10.117627
v 19.252068 10.153820 -10.785851
v 19.252068 10.153820 -13.465178
v 18.062813 3.528472 -14.133402
v 17.101006 3.528472 -10.117627
v 17.101006 3.528472 -14.133402
v 17.101006 10.824465 -14.133402
v 17.101006 10.824465 -10.117627
v 18.691084 10.824465 -14.133402
v -15.989424 -0.017358 22.313446
v -17.263870 1.257089 22.313446
v -17.263870 1.257089 -22.313446
v -15.989424 -0.017358 -22.313446
v -15.989424 1.257089 23.587894
v 15.989423 -0.017358 22.313446
v 15.989423 1.257089 23.587894
v -18.173283 8.831167 22.690140
v -16.366116 8.831167 24.497307
v -16.278467 11.742988 24.584953
v -18.173283 11.830631 22.690140
v 17.263870 1.257089 22.313446
v 15.989423 -0.017358 -22.313446
v 17.263870 1.257089 -22.313446
v 16.366114 8.831167 24.497307
v 18.173283 8.831167 22.690140
v 18.260933 11.742982 22.602489
v 16.366112 11.830631 24.497307
v -16.366114 13.637801 22.690136
v -16.278467 13.725450 -22.602489
v -18.173283 11.830631 -22.690140
v 16.366114 13.637801 22.690136
v 18.260929 11.742983 -22.602489
v 16.366114 13.637801 -22.690136
v -16.366116 11.830631 -24.497307
v -16.366116 8.831167 -24.497307
v -18.173283 8.831167 -22.690140
v 16.366112 11.830631 -24.497307
v 18.173283 8.831167 -22.690140
v 16.366114 8.831167 -24.497307
v -15.989424 1.257089 -23.587894
v 15.989423 1.257089 -23.587894
v 15.989424 8.831167 23.587894
v -15.989424 8.831167 23.587894
v 17.263870 8.831167 22.313446
v 17.263870 8.831167 -22.313446
v 15.989424 8.831167 -23.587894
v -15.989424 8.831167 -23.587894
v -17.263870 8.831167 -22.313446
v -17.263870 8.831167 22.313446
vt 0.729088 0.034969
vt 0.817844 0.038153
vt 0.736208 0.046258
vt 0.736208 0.078752
vt 0.817844 0.086855
vt 0.829508 0.038153
vt 0.829508 0.086855
vt 0.706320 0.086855
vt 0.706320 0.038153
vt 0.725604 0.038153
vt 0.725604 0.086855
vt 0.729088 0.090040
vt 0.819261 0.098434
vt 0.731431 0.109181
vt 0.731431 0.015828
vt 0.819261 0.026575
vt 0.721807 0.163431
vt 0.721807 0.176812
vt 0.705357 0.176812
vt 0.705357 0.163430
vt 0.734487 0.193658
vt 0.750937 0.193679
vt 0.750797 0.297499
vt 0.734347 0.297477
vt 0.818392 0.196461
vt 0.834840 0.198897
vt 0.834733 0.302714
vt 0.818280 0.305116
vt 0.824758 0.184318
vt 0.837555 0.191732
vt 0.721805 0.231838
vt 0.705355 0.231838
vt 0.705355 0.218125
vt 0.721805 0.218126
vt 0.805071 0.196589
vt 0.788615 0.198979
vt 0.785918 0.191808
vt 0.798738 0.184426
vt 0.734495 0.185994
vt 0.750949 0.186016
vt 0.846155 0.174603
vt 0.861800 0.184168
vt 0.705356 0.194618
vt 0.721806 0.194619
vt 0.761686 0.184178
vt 0.777361 0.174650
vt 0.734530 0.160582
vt 0.750984 0.160604
vt 0.761738 0.154419
vt 0.774864 0.157020
vt 0.848696 0.156985
vt 0.861824 0.154419
vt 0.721807 0.408900
vt 0.705357 0.408902
vt 0.705357 0.395520
vt 0.721806 0.395519
vt 0.804878 0.305246
vt 0.788431 0.302797
vt 0.721803 0.340493
vt 0.705353 0.340494
vt 0.837437 0.309885
vt 0.824618 0.317275
vt 0.721804 0.354206
vt 0.705354 0.354207
vt 0.798502 0.317386
vt 0.785709 0.309959
vt 0.750784 0.305159
vt 0.734339 0.305136
vt 0.861682 0.317506
vt 0.846006 0.327044
vt 0.721805 0.377713
vt 0.705355 0.377714
vt 0.777091 0.327086
vt 0.761450 0.317503
vt 0.750747 0.330556
vt 0.734303 0.330532
vt 0.861642 0.347278
vt 0.848510 0.344681
vt 0.774533 0.344707
vt 0.761398 0.347262
vt 0.959115 0.087637
vt 0.870360 0.084453
vt 0.951996 0.076349
vt 0.951996 0.043855
vt 0.870360 0.035750
vt 0.858696 0.084453
vt 0.858696 0.035750
vt 0.981883 0.035750
vt 0.981883 0.084453
vt 0.962599 0.084453
vt 0.962599 0.035750
vt 0.959115 0.032566
vt 0.868943 0.024172
vt 0.956772 0.013425
vt 0.956772 0.106779
vt 0.868943 0.096031
vt 0.055638 0.146470
vt 0.055691 0.128220
vt 0.507681 0.129905
vt 0.507599 0.148155
vt 0.037388 0.146374
vt 0.054431 0.470338
vt 0.036183 0.470298
vt 0.837236 0.437381
vt 0.837245 0.406384
vt 0.872557 0.404889
vt 0.873616 0.437385
vt 0.054349 0.488588
vt 0.506391 0.472023
vt 0.506337 0.490272
vt 0.638508 0.051561
vt 0.607518 0.051008
vt 0.606644 0.015672
vt 0.639157 0.015190
vt 0.601808 0.523736
vt 0.599443 0.554625
vt 0.046103 0.552929
vt 0.038664 0.521389
vt 0.630171 0.544335
vt 0.620091 0.957418
vt 0.590077 0.950146
vt 0.595354 0.981999
vt 0.032099 0.980130
vt 0.038210 0.948291
vt 0.066739 0.084460
vt 0.097733 0.084771
vt 0.097368 0.121146
vt 0.066374 0.120835
vt 0.014865 0.544335
vt 0.007903 0.954667
vt 0.025904 0.011936
vt 0.058412 0.012763
vt 0.057166 0.048084
vt 0.026174 0.048316
vt 0.525847 0.148194
vt 0.524638 0.472119
vt 0.662049 0.409879
vt 0.657222 0.012936
vt 0.693597 0.012493
vt 0.697361 0.408383
vt 0.494691 0.088752
vt 0.494320 0.125130
vt 0.837236 0.987749
vt 0.873613 0.987750
vt 0.893283 0.987946
vt 0.893282 0.600111
vt 0.985140 0.600111
vt 0.985142 0.987946
vt 0.826643 0.403207
vt 0.826643 0.425066
vt 0.734785 0.425064
vt 0.734786 0.403206
vt 0.826646 0.966294
vt 0.734789 0.966294
vt 0.734789 0.988152
vt 0.826647 0.988152
vt 0.893230 0.561772
vt 0.893233 0.173937
vt 0.985091 0.173938
vt 0.985087 0.561773
vt 0.893230 0.583630
vt 0.985087 0.583631
vt 0.634502 0.988308
vt 0.634503 0.447079
vt 0.726359 0.447079
vt 0.726359 0.988308
vt 0.634502 0.425220
vt 0.726361 0.425220
vt 0.048695 0.078899
vt 0.032991 0.093912
vt 0.021872 0.089671
vt 0.043619 0.068194
vt 0.024099 0.479341
vt 0.039402 0.494797
vt 0.034590 0.505850
vt 0.013133 0.484196
vt 0.606456 0.088447
vt 0.591356 0.072766
vt 0.595638 0.061767
vt 0.617702 0.084641
vt 0.579610 0.494521
vt 0.595124 0.478584
vt 0.605898 0.483907
vt 0.583730 0.505850
vn 0.732296 -0.063059 0.678060
vn 0.732296 -0.063059 0.678060
vn 0.732296 -0.063059 0.678060
vn 0.984269 -0.176677 0.000000
vn 0.984269 -0.176677 0.000000
vn 0.984269 -0.176677 0.000000
vn 0.984269 -0.176677 0.000000
vn 0.000000 -1.000000 0.000000
vn 0.000000 -1.000000 0.000000
vn 0.000000 -1.000000 0.000000
vn 0.000000 -1.000000 0.000000
vn 0.000000 1.000000 0.000000
vn 0.000000 1.000000 0.000000
vn 0.000000 1.000000 0.000000
vn 0.000000 1.000000 0.000000
vn 0.000000 0.000000 -1.000000
vn 0.000000 0.000000 -1.000000
vn 0.000000 0.000000 -1.000000
vn 0.000000 0.000000 -1.000000
vn 0.767031 0.641610 0.000000
vn 0.767031 0.641610 0.000000
vn 0.767031 0.641610 0.000000
vn 0.767031 0.641610 0.000000
vn 0.000000 0.000000 1.000000
vn 0.000000 0.000000 1.000000
vn 0.000000 0.000000 1.000000
vn 0.000000 0.000000 1.000000
vn 0.732296 -0.063059 -0.678060
vn 0.732296 -0.063059 -0.678060
vn 0.732296 -0.063059 -0.678060
vn 0.192673 0.000000 -0.981263
vn 0.192673 0.000000 -0.981263
vn 0.192673 0.000000 -0.981263
vn 0.192673 0.000000 -0.981263
vn -0.999702 0.000000 0.024408
vn -0.999702 0.000000 0.024408
vn -0.999702 0.000000 -0.024408
vn -0.999702 0.000000 -0.024408
vn 0.000000 1.000000 0.000000
vn 0.000000 1.000000 0.000000
vn 0.000000 1.000000 0.000000
vn 0.000000 1.000000 0.000000
vn 0.000000 1.000000 0.000000
vn 0.000000 1.000000 0.000000
vn 0.000000 1.000000 0.000000
vn 0.000000 1.000000 0.000000
vn 0.998620 0.000000 -0.052520
vn 0.998620 0.000000 -0.052520
vn 0.619348 0.000000 -0.785117
vn 0.619348 0.000000 -0.785117
vn 0.000000 -1.000000 0.000000
vn 0.000000 -1.000000 0.000000
vn 0.000000 -1.000000 0.000000
vn 0.000000 -1.000000 0.000000
vn -0.999702 0.000000 0.024408
vn -0.999702 0.000000 0.024408
vn -0.935364 0.000000 0.353687
vn -0.935364 0.000000 0.353687
vn 0.000000 1.000000 0.000000
vn 0.000000 1.000000 0.000000
vn 0.000000 1.000000 0.000000
vn 0.000000 1.000000 0.000000
vn 0.619348 0.000000 -0.785117
vn 0.619348 0.000000 -0.785117
vn 0.752864 0.000000 -0.658176
vn 0.752864 0.000000 -0.658176
vn 0.000000 -1.000000 0.000000
vn 0.000000 -1.000000 0.000000
vn 0.000000 -1.000000 0.000000
vn 0.000000 -1.000000 0.000000
vn -0.298631 0.000000 0.954369
vn -0.298631 0.000000 0.954369
vn -0.298631 0.000000 0.954369
vn -0.298631 0.000000 0.954369
vn 0.000000 -1.000000 0.000000
vn 0.000000 -1.000000 0.000000
vn 0.000000 -1.000000 0.000000
vn 0.000000 -1.000000 0.000000
vn 0.000000 1.000000 0.000000
vn 0.000000 1.000000 0.000000
vn 0.000000 1.000000 0.000000
vn 0.000000 1.000000 0.000000
vn 0.752864 0.000000 -0.658176
vn 0.989876 0.000000 -0.141938
vn 0.989876 0.000000 -0.141938
vn 0.752864 0.000000 -0.658176
vn 0.192673 0.000000 0.981263
vn 0.192673 0.000000 0.981263
vn 0.192673 0.000000 0.981263
vn 0.192673 0.000000 0.981263
vn 0.000000 -1.000000 0.000000
vn 0.000000 -1.000000 0.000000
vn 0.000000 -1.000000 0.000000
vn 0.000000 -1.000000 0.000000
vn 0.998620 0.000000 -0.052520
vn 0.998620 0.000000 0.052520
vn 0.998620 0.000000 0.052520
vn 0.998620 0.000000 -0.052520
vn 0.000000 1.000000 0.000000
vn 0.000000 1.000000 0.000000
vn 0.000000 1.000000 0.000000
vn 0.000000 1.000000 0.000000
vn 0.998620 0.000000 0.052520
vn 0.619348 0.000000 0.785117
vn 0.619348 0.000000 0.785117
vn 0.998620 0.000000 0.052520
vn 0.000000 -1.000000 0.000000
vn 0.000000 -1.000000 0.000000
vn 0.000000 -1.000000 0.000000
vn 0.000000 -1.000000 0.000000
vn -0.999702 0.000000 -0.024408
vn -0.935364 0.000000 -0.353686
vn -0.935364 0.000000 -0.353686
vn -0.999702 0.000000 -0.024408
vn 0.000000 1.000000 0.000000
vn 0.000000 1.000000 0.000000
vn 0.000000 1.000000 0.000000
vn 0.000000 1.000000 0.000000
vn 0.619348 0.000000 0.785117
vn 0.752864 0.000000 0.658176
vn 0.752864 0.000000 0.658176
vn 0.619348 0.000000 0.785117
vn 0.000000 -1.000000 0.000000
vn 0.000000 -1.000000 0.000000
vn 0.000000 -1.000000 0.000000
vn 0.000000 -1.000000 0.000000
vn -0.298631 0.000000 -0.954369
vn -0.298631 0.000000 -0.954369
vn -0.298631 0.000000 -0.954369
vn -0.298631 0.000000 -0.954369
vn 0.000000 1.000000 0.000000
vn 0.000000 1.000000 0.000000
vn 0.000000 1.000000 0.000000
vn 0.000000 1.000000 0.000000
vn 0.752864 0.000000 0.658176
vn 0.752864 0.000000 0.658176
vn 0.989876 0.000000 0.141938
vn 0.989876 0.000000 0.141938
vn 0.000000 -1.000000 0.000000
vn 0.000000 -1.000000 0.000000
vn 0.000000 -1.000000 0.000000
vn 0.000000 -1.000000 0.000000
vn 0.732296 -0.063059 0.678060
vn 0.732296 -0.063059 0.678060
vn 0.732296 -0.063059 0.678060
vn 0.984269 -0.176677 0.000000
vn 0.984269 -0.176677 0.000000
vn 0.984269 -0.176677 0.000000
vn 0.984269 -0.176677 0.000000
vn 0.000000 -1.000000 0.000000
vn 0.000000 -1.000000 0.000000
vn 0.000000 -1.000000 0.000000
vn 0.000000 -1.000000 0.000000
vn 0.000000 1.000000 0.000000
vn 0.000000 1.000000 0.000000
vn 0.000000 1.000000 0.000000
vn 0.000000 1.000000 0.000000
vn 0.000000 0.000000 -1.000000
vn 0.000000 0.000000 -1.000000
vn 0.000000 0.000000 -1.000000
vn 0.000000 0.000000 -1.000000
vn 0.767031 0.641610 0.000000
vn 0.767031 0.641610 0.000000
vn 0.767031 0.641610 0.000000
vn 0.767031 0.641610 0.000000
vn 0.000000 0.000000 1.000000
vn 0.000000 0.000000 1.000000
vn 0.000000 0.000000 1.000000
vn 0.000000 0.000000 1.000000
vn 0.732296 -0.063059 -0.678060
vn 0.732296 -0.063059 -0.678060
vn 0.732296 -0.063059 -0.678060
vn -0.037943 -0.998905 0.027390
vn -0.989606 -0.141402 0.026192
vn -0.989606 -0.141402 -0.026192
vn -0.037943 -0.998905 -0.027390
vn -0.036164 -0.140936 0.989358
vn -0.037943 -0.998905 0.027390
vn 0.037943 -0.998905 0.027390
vn 0.036164 -0.140936 0.989358
vn -0.999268 0.000000 0.038270
vn -0.053268 -0.014015 0.998482
vn -0.041880 0.354692 0.934045
vn -0.936372 0.349436 0.033202
vn 0.989606 -0.141402 0.026192
vn 0.037943 -0.998905 0.027390
vn 0.037943 -0.998905 -0.027390
vn 0.989606 -0.141402 -0.026192
vn 0.053535 -0.014049 0.998467
vn 0.998784 -0.028861 0.039982
vn 0.936458 0.349384 0.031263
vn 0.046409 0.341910 0.938586
vn -0.936372 0.349436 0.033202
vn -0.050547 0.997934 0.039661
vn -0.053466 0.997813 -0.038879
vn -0.934341 0.354960 -0.031797
vn -0.050547 0.997934 0.039661
vn -0.041880 0.354692 0.934045
vn 0.046409 0.341910 0.938586
vn 0.054224 0.997787 0.038497
vn 0.054224 0.997787 0.038497
vn 0.936458 0.349384 0.031263
vn 0.936458 0.349384 -0.031263
vn 0.054439 0.997836 -0.036882
vn -0.934341 0.354960 -0.031797
vn -0.043504 0.354122 -0.934187
vn -0.052250 0.000000 -0.998634
vn -0.999268 0.000000 -0.038270
vn -0.043504 0.354122 -0.934187
vn -0.053466 0.997813 -0.038879
vn 0.054439 0.997836 -0.036882
vn 0.045411 0.348424 -0.936237
vn 0.045411 0.348424 -0.936237
vn 0.936458 0.349384 -0.031263
vn 0.998784 -0.028861 -0.039982
vn 0.052250 0.000000 -0.998634
vn -0.037943 -0.998905 -0.027390
vn -0.036164 -0.140936 -0.989358
vn 0.036164 -0.140936 -0.989358
vn 0.037943 -0.998905 -0.027390
vn -0.053268 -0.014015 0.998482
vn 0.053535 -0.014049 0.998467
vn 0.046409 0.341910 0.938586
vn -0.041880 0.354692 0.934045
vn -0.050547 0.997934 0.039661
vn 0.054224 0.997787 0.038497
vn 0.054439 0.997836 -0.036882
vn -0.053466 0.997813 -0.038879
vn -0.043504 0.354122 -0.934187
vn 0.045411 0.348424 -0.936237
vn 0.052250 0.000000 -0.998634
vn -0.052250 0.000000 -0.998634
vn -0.037943 -0.998905 -0.027390
vn 0.037943 -0.998905 -0.027390
vn 0.037943 -0.998905 0.027390
vn -0.037943 -0.998905 0.027390
vn 0.998784 -0.028861 0.039982
vn 0.998784 -0.028861 -0.039982
vn 0.936458 0.349384 -0.031263
vn 0.936458 0.349384 0.031263
vn -0.999268 0.000000 -0.038270
vn -0.999268 0.000000 0.038270
vn -0.936372 0.349436 0.033202
vn -0.934341 0.354960 -0.031797
vn -0.037943 -0.998905 0.027390
vn -0.036164 -0.140936 0.989358
vn -0.989606 -0.141402 0.026192
vn 0.989606 -0.141402 0.026192
vn 0.036164 -0.140936 0.989358
vn 0.037943 -0.998905 0.027390
vn -0.936372 0.349436 0.033202
vn -0.041880 0.354692 0.934045
vn -0.050547 0.997934 0.039661
vn 0.054224 0.997787 0.038497
vn 0.046409 0.341910 0.938586
vn 0.936458 0.349384 0.031263
vn -0.934341 0.354960 -0.031797
vn -0.053466 0.997813 -0.038879
vn -0.043504 0.354122 -0.934187
vn 0.045411 0.348424 -0.936237
vn 0.054439 0.997836 -0.036882
vn 0.936458 0.349384 -0.031263
vn -0.989606 -0.141402 -0.026192
vn -0.036164 -0.140936 -0.989358
vn -0.037943 -0.998905 -0.027390
vn 0.037943 -0.998905 -0.027390
vn 0.036164 -0.140936 -0.989358
vn 0.989606 -0.141402 -0.026192
vn -0.036164 -0.140936 0.989358
vn 0.036164 -0.140936 0.989358
vn 0.038297 -0.000000 0.999266
vn -0.038297 0.000000 0.999266
vn 0.036164 -0.140936 0.989358
vn 0.989606 -0.141402 0.026192
vn 0.999615 -0.000000 0.027754
vn 0.038297 -0.000000 0.999266
vn 0.989606 -0.141402 0.026192
vn 0.989606 -0.141402 -0.026192
vn 0.999615 -0.000000 -0.027754
vn 0.999615 -0.000000 0.027754
vn 0.038297 -0.000000 -0.999266
vn 0.999615 -0.000000 -0.027754
vn 0.989606 -0.141402 -0.026192
vn 0.036164 -0.140936 -0.989358
vn -0.038297 0.000000 -0.999266
vn 0.038297 -0.000000 -0.999266
vn 0.036164 -0.140936 -0.989358
vn -0.036164 -0.140936 -0.989358
vn -0.999615 0.000000 -0.027754
vn -0.038297 0.000000 -0.999266
vn -0.036164 -0.140936 -0.989358
vn -0.989606 -0.141402 -0.026192
vn -0.989606 -0.141402 -0.026192
vn -0.989606 -0.141402 0.026192
vn -0.999615 0.000000 0.027754
vn -0.999615 0.000000 -0.027754
vn -0.989606 -0.141402 0.026192
vn -0.036164 -0.140936 0.989358
vn -0.038297 0.000000 0.999266
vn -0.999615 0.000000 0.027754
vn 0.000000 -1.000000 0.000000
vn 0.000000 -1.000000 0.000000
vn 0.000000 -1.000000 0.000000
vn 0.000000 -1.000000 0.000000
vn 0.000000 -1.000000 0.000000
vn 0.000000 -1.000000 0.000000
vn 0.000000 -1.000000 0.000000
vn 0.000000 -1.000000 0.000000
vn 0.000000 -1.000000 0.000000
vn 0.000000 -1.000000 0.000000
vn 0.000000 -1.000000 0.000000
vn 0.000000 -1.000000 0.000000
vn 0.000000 -1.000000 0.000000
vn 0.000000 -1.000000 0.000000
vn 0.000000 -1.000000 0.000000
vn 0.000000 -1.000000 0.000000
vn 0.000000 -1.000000 0.000000
vn 0.000000 -1.000000 0.000000
vn 0.000000 -1.000000 0.000000
vn 0.000000 -1.000000 0.000000
vn 0.000000 -1.000000 0.000000
vn 0.000000 -1.000000 0.000000
vn 0.000000 -1.000000 0.000000
vn 0.000000 -1.000000 0.000000
vn 0.000000 -1.000000 0.000000
vn 0.000000 -1.000000 0.000000
vn 0.000000 -1.000000 0.000000
vn 0.000000 -1.000000 0.000000
vn 0.000000 -1.000000 0.000000
vn 0.000000 -1.000000 0.000000
vn 0.000000 -1.000000 0.000000
vn 0.000000 -1.000000 0.000000
s off
g Case
usemtl StingrayPBS1SG
f 1/1/1 2/2/2 3/3/3
f 4/4/4 3/3/5 2/2/6 5/5/7
f 6/6/8 7/7/9 5/5/10 2/2/11
f 8/8/12 9/9/13 1/10/14 10/11/15
f 10/12/16 5/5/17 7/13/18 8/14/19
f 1/10/20 3/3/21 4/4/22 10/11/23
f 9/15/24 6/16/25 2/2/26 1/1/27
f 10/12/28 4/4/29 5/5/30
f 11/17/31 12/18/32 13/19/33 14/20/34
f 15/21/35 16/22/36 17/23/37 18/24/38
f 19/25/39 15/26/40 18/27/41 20/28/42
f 15/26/43 19/25/44 21/29/45 22/30/46
f 19/31/47 23/32/48 24/33/49 21/34/50
f 23/35/51 16/36/52 25/37/53 24/38/54
f 16/22/55 15/21/56 22/39/57 25/40/58
f 22/30/59 21/29/60 26/41/61 27/42/62
f 21/34/63 24/33/64 28/43/65 26/44/66
f 24/38/67 25/37/68 29/45/69 28/46/70
f 25/40/71 22/39/72 27/47/73 29/48/74
f 28/46/75 29/45/76 14/49/77 13/50/78
f 26/41/79 12/51/80 11/52/81 27/42/82
f 28/43/83 13/19/84 12/18/85 26/44/86
f 30/53/87 31/54/88 32/55/89 33/56/90
f 23/35/91 34/57/92 17/58/93 16/36/94
f 19/31/95 20/59/96 34/60/97 23/32/98
f 18/27/99 35/61/100 36/62/101 20/28/102
f 20/59/103 36/63/104 37/64/105 34/60/106
f 34/57/107 37/65/108 38/66/109 17/58/110
f 17/23/111 38/67/112 35/68/113 18/24/114
f 35/61/115 39/69/116 40/70/117 36/62/118
f 36/63/119 40/71/120 41/72/121 37/64/122
f 37/65/123 41/73/124 42/74/125 38/66/126
f 38/67/127 42/75/128 39/76/129 35/68/130
f 40/70/131 39/69/132 30/77/133 33/78/134
f 41/72/135 40/71/136 33/56/137 32/55/138
f 41/73/139 32/79/140 31/80/141 42/74/142
f 43/81/143 44/82/144 45/83/145
f 46/84/146 45/83/147 44/82/148 47/85/149
f 48/86/150 49/87/151 47/85/152 44/82/153
f 50/88/154 51/89/155 43/90/156 52/91/157
f 52/92/158 47/85/159 49/93/160 50/94/161
f 43/90/162 45/83/163 46/84/164 52/91/165
f 51/95/166 48/96/167 44/82/168 43/81/169
f 52/92/170 46/84/171 47/85/172
f 53/97/173 54/98/174 55/99/175 56/100/176
f 57/101/177 53/97/178 58/102/179 59/103/180
f 60/104/181 61/105/182 62/106/183 63/107/184
f 64/108/185 58/102/186 65/109/187 66/110/188
f 67/111/189 68/112/190 69/113/191 70/114/192
f 63/115/193 71/116/194 72/117/195 73/118/196
f 71/116/197 62/119/198 70/120/199 74/121/200
f 74/121/201 69/122/202 75/123/203 76/124/204
f 73/125/205 77/126/206 78/127/207 79/128/208
f 77/129/209 72/117/210 76/124/211 80/130/212
f 80/131/213 75/132/214 81/133/215 82/134/216
f 56/100/217 83/135/218 84/136/219 65/109/220
f 61/137/221 67/138/222 70/139/223 62/140/224
f 71/116/225 74/121/226 76/124/227 72/117/228
f 77/126/229 80/141/230 82/142/231 78/127/232
f 56/100/233 65/109/234 58/102/235 53/97/236
f 68/112/237 81/133/238 75/132/239 69/113/240
f 79/143/241 60/104/242 63/107/243 73/144/244
f 53/97/245 57/101/246 54/98/247
f 64/108/248 59/103/249 58/102/250
f 63/115/251 62/119/252 71/116/253
f 74/121/254 70/120/255 69/122/256
f 73/118/257 72/117/258 77/129/259
f 80/130/260 76/124/261 75/123/262
f 55/99/263 83/135/264 56/100/265
f 65/109/266 84/136/267 66/110/268
f 57/145/269 59/146/270 85/147/271 86/148/272
f 59/149/273 64/150/274 87/151/275 85/152/276
f 64/150/277 66/153/278 88/154/279 87/151/280
f 89/155/281 88/154/282 66/153/283 84/156/284
f 90/157/285 89/158/286 84/159/287 83/160/288
f 91/161/289 90/157/290 83/160/291 55/162/292
f 55/163/293 54/164/294 92/165/295 91/166/296
f 54/164/297 57/167/298 86/168/299 92/165/300
f 92/169/301 86/170/302 61/171/303 60/172/304
f 85/173/305 87/174/306 68/175/307 67/176/308
f 90/177/309 91/178/310 79/179/311 78/180/312
f 88/181/313 89/182/314 82/183/315 81/184/316
f 86/170/317 85/173/318 67/176/319 61/171/320
f 89/182/321 90/177/322 78/180/323 82/183/324
f 87/174/325 88/181/326 81/184/327 68/175/328
f 91/178/329 92/169/330 60/172/331 79/179/332
