# This file uses centimeters as units for non-parametric coordinates.

mtllib document_holder.mtl
g default
v 1.924675 22.104839 18.104248
v 0.376089 -0.040969 18.104248
v 1.924675 22.104839 -18.104248
v 0.376089 -0.040969 -18.104248
v -0.180641 21.706373 18.104248
v -0.180641 21.706373 -18.104248
v -0.379951 -0.040969 -18.104248
v -0.379951 -0.040969 18.104248
v 1.251799 22.219160 18.104248
v 1.251799 22.219160 -18.104248
v -0.020010 -0.040969 -18.104248
v -0.020010 -0.040969 18.104248
vt 0.527299 0.746004
vt 0.527339 0.374686
vt 0.750368 0.374710
vt 0.750328 0.746028
vt 0.985741 0.746054
vt 0.758081 0.746029
vt 0.758121 0.374711
vt 0.985781 0.374735
vt 0.775420 0.973653
vt 0.416307 0.973653
vt 0.415236 0.958604
vt 0.776511 0.958661
vt 0.776242 0.980282
vt 0.415475 0.980303
vt 0.754059 0.374710
vt 0.754019 0.746029
vt 0.202601 0.925834
vt 0.203168 0.922265
vt 0.201965 0.929757
vt 0.988908 0.926636
vt 0.988354 0.923100
vt 0.989530 0.930525
vn -0.999958 0.009164 0.000000
vn -0.999958 0.009164 0.000000
vn -0.999958 0.009164 0.000000
vn -0.999958 0.009164 0.000000
vn 0.997564 -0.069756 0.000000
vn 0.997564 -0.069756 0.000000
vn 0.997564 -0.069756 0.000000
vn 0.997564 -0.069756 0.000000
vn -0.185965 0.982556 0.000000
vn -0.185965 0.982556 0.000000
vn -0.337036 0.941492 0.000000
vn -0.337036 0.941492 0.000000
vn -0.000000 0.000000 -1.000000
vn 0.000000 0.000000 -1.000000
vn 0.000001 0.000000 -1.000000
vn 0.000001 0.000000 -1.000000
vn 0.000000 -1.000000 0.000000
vn 0.000000 -1.000000 0.000000
vn 0.000000 -1.000000 0.000000
vn 0.000000 -1.000000 0.000000
vn 0.000000 0.000000 1.000000
vn -0.000000 0.000000 1.000000
vn 0.000002 0.000000 1.000000
vn 0.000002 0.000000 1.000000
vn 0.167499 0.985872 0.000000
vn 0.167499 0.985872 0.000000
vn -0.000002 0.000000 -1.000000
vn -0.000002 0.000000 -1.000000
vn 0.000000 -1.000000 0.000000
vn 0.000000 -1.000000 0.000000
vn -0.000003 0.000000 1.000000
vn -0.000003 0.000000 1.000000
s off
g paper2 document_holder
usemtl aiStandardSurface1SG
f 5/1/1 6/2/2 7/3/3 8/4/4
f 1/5/5 2/6/6 4/7/7 3/8/8
s 1
f 9/9/9 10/10/10 6/11/11 5/12/12
s 2
f 10/10/13 11/17/14 7/18/15 6/11/16
s 3
f 11/15/17 12/16/18 8/4/19 7/3/20
s 4
f 12/20/21 9/9/22 5/12/23 8/21/24
s 1
f 1/13/25 3/14/26 10/10/10 9/9/9
s 2
f 3/14/27 4/19/28 11/17/14 10/10/13
s 3
f 4/7/29 2/6/30 12/16/18 11/15/17
s 4
f 2/22/31 1/13/32 9/9/22 12/20/21
